<svg version="1.2" baseProfile="tiny-ps" xmlns="http://www.w3.org/2000/svg" viewBox="0 0 765 642" width="100" height="84">
	<title>icon</title>
	<defs>
		<linearGradient id="grd1" gradientUnits="userSpaceOnUse"  x1="38.216" y1="84.597" x2="757.077" y2="84.597">
			<stop offset="0" stop-color="#7548d6"  />
			<stop offset="1" stop-color="#6320a6"  />
		</linearGradient>
		<linearGradient id="grd2" gradientUnits="userSpaceOnUse"  x1="124.837" y1="8.655" x2="650.554" y2="8.655">
			<stop offset="0" stop-color="#fe6df0"  />
			<stop offset="1" stop-color="#5c15da"  />
		</linearGradient>
		<linearGradient id="grd3" gradientUnits="userSpaceOnUse"  x1="84.742" y1="8.86" x2="645.235" y2="8.86">
			<stop offset="0" stop-color="#c8bffe"  />
			<stop offset="1" stop-color="#af8cfd"  />
		</linearGradient>
		<linearGradient id="grd4" gradientUnits="userSpaceOnUse"  x1="286.019" y1="94.89" x2="584.367" y2="148.055">
			<stop offset="0" stop-color="#fe6df0"  />
			<stop offset="1" stop-color="#5c15da"  />
		</linearGradient>
		<linearGradient id="grd5" gradientUnits="userSpaceOnUse"  x1="279.417" y1="80.653" x2="582.29" y2="134.624">
			<stop offset="0" stop-color="#c8bffe"  />
			<stop offset="1" stop-color="#af8cfd"  />
		</linearGradient>
		<linearGradient id="grd6" gradientUnits="userSpaceOnUse"  x1="44.123" y1="148.852" x2="753.983" y2="148.852">
			<stop offset="0" stop-color="#c1a6ff"  />
			<stop offset="1" stop-color="#6818db"  />
		</linearGradient>
		<linearGradient id="grd7" gradientUnits="userSpaceOnUse"  x1="44.961" y1="149.403" x2="754.014" y2="149.403">
			<stop offset="0" stop-color="#ded1ff"  />
			<stop offset="1" stop-color="#6818db"  />
		</linearGradient>
		<linearGradient id="grd8" gradientUnits="userSpaceOnUse"  x1="81.906" y1="160.271" x2="663.531" y2="160.271">
			<stop offset="0" stop-color="#9756fe"  />
			<stop offset="1" stop-color="#a515da"  />
		</linearGradient>
		<linearGradient id="grd9" gradientUnits="userSpaceOnUse"  x1="254.323" y1="223.645" x2="555.116" y2="223.645">
			<stop offset="0" stop-color="#fe6df0"  />
			<stop offset="1" stop-color="#5c15da"  />
		</linearGradient>
	</defs>
	<style>
		tspan { white-space:pre }
		.shp0 { fill: url(#grd1) } 
		.shp1 { fill: url(#grd2) } 
		.shp2 { opacity: 0.502;mix-blend-mode: multiply;fill: #9f7bb5 } 
		.shp3 { opacity: 0.502;mix-blend-mode: screen;fill: url(#grd3) } 
		.shp4 { fill: url(#grd4) } 
		.shp5 { opacity: 0.502;mix-blend-mode: screen;fill: url(#grd5) } 
		.shp6 { fill: url(#grd6) } 
		.txt7 { font-size: 73px;fill: #ffffff;font-weight: bold;font-family: "Agency FB" } 
		.shp8 { opacity: 0.6;mix-blend-mode: screen;fill: url(#grd7) } 
		.shp9 { opacity: 0.502;fill: url(#grd8) } 
		.shp10 { opacity: 0.502;fill: url(#grd9) } 
	</style>
	<g id="BG">
	</g>
	<g id="graphics">
		<g id="&lt;Group&gt;">
			<g id="&lt;Group&gt;">
			</g>
		</g>
		<g id="&lt;Group&gt;">
			<g id="&lt;Group&gt;">
			</g>
		</g>
		<g id="&lt;Group&gt;">
			<path id="&lt;Path&gt;" class="shp0" d="M370.66 260.71C569.02 344.07 746.08 327.64 755.21 187.69L755.68 187.67C756.12 125.94 694.99 70.14 607.41 90.35C512.49 112.26 409.3 215.38 213.07 145.1C16.84 74.82 -9.63 167.01 14.1 260.1C-27.88 57.48 186.37 183.26 370.66 260.71Z" />
			<path id="&lt;Path&gt;" class="shp1" d="M387.7 81.24C242.59 -60.57 -3.93 17.84 86.57 251.41C142.69 396.26 283.16 501.66 387.7 553.38C492.23 501.66 632.7 396.26 688.82 251.41C779.32 17.84 532.8 -60.57 387.7 81.24Z" />
			<path id="&lt;Path&gt;" class="shp2" d="M674.05 284.75C652.56 287.31 631.47 288.12 610.74 287.52C672.22 171.54 546.01 108.22 452.86 171.62C395.37 91.17 280.27 93.51 264.86 183.19C196.84 155.42 131.94 133.62 68.45 136.01C67.47 143.98 67.02 152.3 67.17 160.98C123.83 248.77 333.83 408.1 405.56 437.05C486.5 420.1 614.5 349.44 659.5 311.7C664.66 302.9 669.51 293.91 674.05 284.75Z" />
			<path id="&lt;Path&gt;" class="shp3" d="M688.82 251.41C758.12 26.96 555.81 -55.26 387.15 100.7C309.08 11.62 159.85 -16.85 85.49 82.64C137.23 -9.52 286.92 -17.25 387.7 81.24C532.8 -60.57 779.32 17.84 688.82 251.41Z" />
			<path id="&lt;Path&gt;" class="shp4" d="M436.2 168.29C368.83 74.03 222.39 93.42 249.86 233.79C266.9 320.85 335.31 394.17 388.9 433.71C452.84 415.11 542.37 369.93 588.43 294.12C662.71 171.88 531.97 103.1 436.2 168.29Z" />
			<path id="&lt;Path&gt;" class="shp5" d="M588.43 294.12C649.88 174.88 542.45 118.32 432 189.1C401.83 129.44 317.93 90.32 266.16 138.81C304.48 92.18 389.41 102.83 436.2 168.29C531.97 103.1 662.71 171.88 588.43 294.12Z" />
			<path id="&lt;Path&gt;" class="shp2" d="M559.82 332.01C570.49 320.35 580.16 307.73 588.43 294.12C592.06 288.15 595.19 282.31 597.87 276.61C471.11 265.47 358.19 204.1 252.46 163.36C245.99 181.57 244.37 204.49 249.56 232.17C291.72 255.59 336.42 279.73 380.46 298.24C443.65 324.8 505.11 334.98 559.82 332.01Z" />
			<path id="&lt;Path&gt;" class="shp6" d="M14.35 260.05C17.92 273.5 22.67 287.52 28.71 302.08C94.37 460.58 258.7 575.89 381 632.48C503.3 575.89 667.64 460.58 733.3 302.08C751.14 259.01 757.79 220.76 755.68 187.67L755.21 187.69C746.08 327.64 569.02 344.07 370.66 260.71C186.37 183.26 -27.88 57.48 14.1 260.1L14.35 260.05Z" />
			<text id="LOVE" style="transform: matrix(1.867,0.407,-0.43,1.974,290.427,290.769)" >
				<tspan x="0" y="0" class="txt7">LOVE
</tspan>
			</text>
			<path id="&lt;Path&gt;" class="shp8" d="M14.1 260.1C-13.88 68.44 184.94 202.6 370.66 276.53C606.16 370.28 746.08 327.64 755.21 187.69C746.08 327.64 569.02 344.07 370.66 260.71C186.37 183.26 -27.88 57.48 14.1 260.1Z" />
			<path id="&lt;Path&gt;" class="shp9" d="M370.66 276.53C262.17 233.35 149.22 169.61 79.61 162.27C72.51 194.18 79.34 239.59 96.02 279.83C150.38 411.06 286.44 506.53 387.7 553.38C478.16 511.52 601.23 425.25 664.33 314.77C598.45 338.14 498.69 327.5 370.66 276.53Z" />
			<path id="&lt;Path&gt;" class="shp10" d="M370.66 276.53C331.72 261.03 292.2 242.88 254.32 225.64C273.51 309.69 339.72 380.21 391.9 418.71C441.66 404.24 506.91 373.65 555.12 325.06C502.78 320.35 440.98 304.53 370.66 276.53Z" />
		</g>
	</g>
</svg>